<svg xmlns="http://www.w3.org/2000/svg" viewBox="0 0 48 48" width="48" height="48">
  <path fill="#4285F4" d="M24 9.5c3.2 0 6.1 1.1 8.4 3.3l6.3-6.3C34.8 2.9 29.7 1 24 1 14.7 1 6.9 6.9 3.9 15.1l7.4 5.7C13.1 15 18.1 9.5 24 9.5z"/>
  <path fill="#34A853" d="M46.5 24.5c0-1.6-.1-3.1-.4-4.5H24v9h12.7c-.6 3.1-2.3 5.7-4.8 7.5l7.4 5.7c4.3-4 6.7-9.9 6.7-17.7z"/>
  <path fill="#FBBC05" d="M11.3 28.8c-.9-2.6-.9-5.4 0-8.1l-7.4-5.7c-3.1 6.2-3.1 13.5 0 19.6l7.4-5.8z"/>
  <path fill="#EA4335" d="M24 47c5.7 0 10.5-1.9 14-5.1l-7.4-5.7c-2 1.4-4.6 2.2-6.6 2.2-5.9 0-10.9-4-12.7-9.4l-7.4 5.7C6.9 41.1 14.7 47 24 47z"/>
</svg>
