<svg xmlns="http://www.w3.org/2000/svg" viewBox="0 0 160 50" width="160" height="50">
  <rect width="160" height="50" fill="#1434CB" rx="8"/>
  <path fill="#fff" d="M56.2 32.5l4.8-19h7.7l-4.8 19h-7.7zm38.9-18.5c-1.5-.6-3.9-1.2-6.9-1.2-7.6 0-13 4-13 9.8 0 4.2 3.8 6.6 6.7 8 3 1.5 4 2.4 4 3.7 0 2-2.4 2.9-4.7 2.9-3.1 0-4.8-.5-7.3-1.6l-1-.5-1.1 6.8c1.8.8 5.1 1.5 8.6 1.6 8 0 13.3-4 13.3-10.1 0-3.3-2-5.9-6.4-7.9-2.7-1.3-4.3-2.2-4.3-3.6 0-1.2 1.4-2.5 4.3-2.5 2.5 0 4.2.5 5.6 1.1l.7.3 1-6.7zm18.5-1l-6 15.7h-.1l-2.5-13.4c-.3-1.5-1.5-2.3-2.8-2.3h-12.4l-.1.6c2.6.6 5.6 1.5 7.4 2.5 1.1.6 1.4 1.1 1.8 2.5l6 23.1h8l12.2-30h-8l.5-.7zm-47.4 0h-7.5c-2.3 0-4 .7-5 2.3l-14.2 28.3h8l1.6-4.4h9.8l.9 4.4h7l-6.1-30.6h5.5zm-14.7 19.3c.6-1.7 3.1-8.3 3.1-8.3l-.4.6 1.7-4.5.9 4.3 2 9.9h-6.5l-.8-2z"/>
</svg>
